<svg xmlns="http://www.w3.org/2000/svg" width="64" height="64" viewBox="0 0 64 64" fill="none">
  <defs>
    <linearGradient id="ring" x1="14" y1="16" x2="51" y2="50" gradientUnits="userSpaceOnUse">
      <stop offset="0" stop-color="#1ea8ff"/>
      <stop offset="1" stop-color="#29e0d0"/>
    </linearGradient>
    <linearGradient id="bg" x1="8" y1="8" x2="56" y2="56" gradientUnits="userSpaceOnUse">
      <stop offset="0" stop-color="#0f1a2d"/>
      <stop offset="1" stop-color="#07111f"/>
    </linearGradient>
  </defs>
  <rect x="8" y="8" width="48" height="48" rx="11" fill="url(#bg)"/>
  <rect x="8.75" y="8.75" width="46.5" height="46.5" rx="10.25" stroke="#1e293b" stroke-width="1.5"/>
  <circle cx="29" cy="26" r="13.5" fill="#08111f"/>
  <circle cx="29" cy="26" r="15.5" stroke="url(#ring)" stroke-width="4.5"/>
  <path d="M39 36L47 44" stroke="url(#ring)" stroke-linecap="round" stroke-width="4.5"/>
  <rect x="21" y="31" width="3.5" height="6.5" rx="0.8" fill="#f8fafc"/>
  <rect x="26.5" y="26.5" width="3.5" height="11" rx="0.8" fill="#f8fafc"/>
  <rect x="32" y="20.5" width="3.5" height="17" rx="0.8" fill="#f8fafc"/>
  <path d="M20 28.5L25.5 23.5L30.5 25.5L35.5 18.5" stroke="#f8fafc" stroke-linecap="round" stroke-linejoin="round" stroke-width="2.2"/>
  <circle cx="20" cy="28.5" r="2.1" fill="#f8fafc"/>
  <circle cx="25.5" cy="23.5" r="2.1" fill="#f8fafc"/>
  <circle cx="30.5" cy="25.5" r="2.1" fill="#f8fafc"/>
  <circle cx="35.5" cy="18.5" r="2.1" fill="#f8fafc"/>
</svg>